<svg width="207" height="207" viewBox="0 0 207 207" fill="none" xmlns="http://www.w3.org/2000/svg">
<path d="M8.30225 168.507L14.771 165.402L17.5711 171.234L11.1023 174.339L8.30225 168.507Z" fill="black"/>
<path d="M8.21088 80.4955L11.1957 74.7565L17.415 77.9908L14.4302 83.7298L8.21088 80.4955Z" fill="black"/>
<path d="M19.4062 103.5H25.875V109.969H19.4062V103.5Z" fill="black"/>
<path d="M29.1094 116.438H35.5781V122.906H29.1094V116.438Z" fill="black"/>
<path d="M35.5781 132.609H42.0469V139.078H35.5781V132.609Z" fill="black"/>
<path d="M48.5156 119.672H54.9844V126.141H48.5156V119.672Z" fill="black"/>
<path d="M19.4062 142.312H25.875V148.781H19.4062V142.312Z" fill="black"/>
<path d="M23.203 38.8125C25.7188 38.8156 28.2046 38.2613 30.4803 37.1906C31.619 36.6583 32.3455 35.5165 32.3455 34.261C32.3455 33.0054 31.619 31.862 30.4803 31.3298C26.9459 29.6779 24.7507 26.3489 24.7507 22.6407C24.7507 18.9325 26.9459 15.6035 30.4803 13.9515C31.6174 13.4193 32.3439 12.2759 32.3439 11.0204C32.3439 9.76483 31.6174 8.62302 30.4803 8.0908C28.203 7.02006 25.7189 6.46573 23.203 6.46889C13.9753 6.46889 6.46875 13.724 6.46875 22.6408C6.46875 31.5575 13.9749 38.8125 23.203 38.8125ZM21.5116 13.0685C19.4159 15.8196 18.2819 19.1818 18.2819 22.6406C18.2819 26.0994 19.4159 29.4615 21.5116 32.2127C16.6519 31.4468 12.9377 27.4465 12.9377 22.6406C12.9377 17.8347 16.6521 13.8346 21.5116 13.0685Z" fill="black"/>
<path d="M78.5711 52.696L83.1445 57.2694L90.5609 49.853V77.6234H97.0297V49.853L104.446 57.2694L109.019 52.696L97.0297 40.7062V33.6816L104.446 41.098L109.019 36.5246L97.0297 24.5348V17.5101L104.446 24.9265L109.019 20.3531L96.082 7.41561C95.4755 6.80916 94.6527 6.46802 93.7952 6.46802C92.9377 6.46802 92.1149 6.80914 91.5084 7.41561L78.5709 20.3531L83.1443 24.9265L90.5608 17.5101V24.5348L78.5709 36.5246L83.1443 41.098L90.5608 33.6816V40.7046L78.5711 52.696Z" fill="black"/>
<path d="M110.915 52.696L115.488 57.2694L122.905 49.853V77.6234H129.373V49.853L136.79 57.2694L141.363 52.696L129.373 40.7062V33.6816L136.79 41.098L141.363 36.5246L129.373 24.5348V17.5101L136.79 24.9265L141.363 20.3531L128.426 7.41561C127.819 6.80916 126.996 6.46802 126.139 6.46802C125.281 6.46802 124.459 6.80914 123.852 7.41561L110.915 20.3531L115.488 24.9265L122.905 17.5101V24.5348L110.915 36.5246L115.488 41.098L122.905 33.6816V40.7046L110.915 52.696Z" fill="black"/>
<path d="M42.993 52.696L47.5664 57.2694L54.9828 49.853V77.6234H61.4515V49.853L68.868 57.2694L73.4414 52.696L61.4515 40.7062V33.6816L68.868 41.098L73.4414 36.5246L61.4515 24.5348V17.5101L68.868 24.9265L73.4414 20.3531L60.5039 7.41561C59.8974 6.80916 59.0746 6.46802 58.2171 6.46802C57.3596 6.46802 56.5367 6.80914 55.9303 7.41561L42.9928 20.3531L47.5662 24.9265L54.9826 17.5101V24.5348L42.9928 36.5246L47.5662 41.098L54.9826 33.6816V40.7046L42.993 52.696Z" fill="black"/>
<path d="M164.953 93.7969H200.531V87.3281H164.953C147.436 87.3439 130.185 91.6286 114.699 99.8108L84.1604 115.978L24.2517 81.5463L21.0284 87.1543L80.8603 121.543V130.61L21.1254 162.354L24.1576 168.069L74.3915 141.419V148.782C74.3915 149.639 74.7327 150.462 75.3391 151.068C75.9456 151.675 76.7684 152.016 77.6259 152.016H84.0947V156.154L76.6026 158.65C75.2824 159.091 74.3916 160.326 74.3916 161.719V174.656C74.3916 176.353 75.7024 177.761 77.3954 177.883L122.677 181.117C122.754 181.124 122.83 181.125 122.907 181.125H133.269C138.842 192 149.635 199.227 161.813 200.239C173.991 201.25 185.828 195.902 193.119 186.095C200.409 176.288 202.12 163.412 197.643 152.043C193.166 140.672 183.135 132.418 171.116 130.215C159.097 128.012 146.791 132.171 138.571 141.213C130.353 150.255 127.385 162.902 130.722 174.656H123.023L80.8592 171.645V164.05L88.3512 161.553C89.6715 161.113 90.5622 159.878 90.5622 158.485V148.782C90.5622 147.924 90.2211 147.101 89.6146 146.495C89.0081 145.888 88.1853 145.547 87.3278 145.547H80.8591V137.987L84.8989 135.844H113.203C114.163 135.844 115.073 135.418 115.687 134.68L131.859 115.274C132.717 114.246 132.851 112.796 132.199 111.627C131.546 110.459 130.242 109.813 128.917 110.001L102.012 113.845L117.723 105.528C132.279 97.8386 148.49 93.813 164.953 93.7973L164.953 93.7969ZM164.953 135.844C172.673 135.844 180.078 138.911 185.536 144.37C190.995 149.828 194.062 157.233 194.062 164.953C194.062 172.673 190.996 180.078 185.536 185.536C180.078 190.995 172.673 194.062 164.953 194.062C157.233 194.062 149.828 190.996 144.37 185.536C138.911 180.078 135.844 172.673 135.844 164.953C135.852 157.235 138.922 149.836 144.38 144.38C149.836 138.922 157.235 135.851 164.953 135.844ZM111.687 129.375H87.3265V122.477L121.504 117.595L111.687 129.375Z" fill="black"/>
<path d="M97.0312 155.25H103.5V161.719H97.0312V155.25Z" fill="black"/>
<path d="M109.969 155.25H122.906V161.719H109.969V155.25Z" fill="black"/>
<path d="M164.953 187.594C170.958 187.594 176.717 185.209 180.962 180.962C185.209 176.717 187.594 170.958 187.594 164.953C187.594 158.949 185.209 153.189 180.962 148.944C176.717 144.697 170.958 142.312 164.953 142.312C158.949 142.312 153.189 144.697 148.944 148.944C144.697 153.189 142.312 158.949 142.312 164.953C142.319 170.956 144.707 176.711 148.952 180.954C153.195 185.2 158.95 187.587 164.953 187.594ZM148.781 164.953C148.781 163.469 148.987 161.99 149.392 160.561L154.757 164.953L149.392 169.345C148.987 167.916 148.781 166.438 148.781 164.953ZM154.707 152.451L158.802 157.455C158.311 157.859 157.859 158.311 157.455 158.802L152.451 154.707C153.127 153.884 153.884 153.127 154.707 152.451ZM177.455 154.707L172.452 158.802C172.047 158.311 171.596 157.859 171.105 157.455L175.2 152.451C176.022 153.127 176.779 153.884 177.455 154.707ZM181.125 164.953C181.125 166.438 180.92 167.916 180.514 169.345L175.149 164.953L180.514 160.561C180.92 161.991 181.125 163.469 181.125 164.953ZM175.2 177.455L171.105 172.452C171.596 172.047 172.047 171.596 172.452 171.105L177.455 175.2C176.779 176.022 176.022 176.779 175.2 177.455ZM161.719 164.953C161.719 163.646 162.507 162.466 163.715 161.965C164.925 161.465 166.315 161.741 167.24 162.666C168.165 163.592 168.442 164.982 167.941 166.191C167.441 167.4 166.261 168.188 164.953 168.188C163.167 168.186 161.72 166.739 161.719 164.953ZM157.455 171.105C157.859 171.596 158.311 172.047 158.802 172.452L154.707 177.455C153.884 176.779 153.127 176.022 152.451 175.2L157.455 171.105ZM160.561 180.514L164.953 175.149L169.343 180.514C166.474 181.329 163.432 181.329 160.562 180.514H160.561ZM169.344 149.392L164.953 154.757L160.563 149.392C163.433 148.577 166.474 148.577 169.344 149.392Z" fill="black"/>
</svg>
