<svg width="533" height="533" viewBox="0 0 533 533" fill="none" xmlns="http://www.w3.org/2000/svg">
<path d="M335.289 295.633H192.783C186.887 295.633 182.116 300.404 182.116 306.3C182.116 312.196 186.887 316.967 192.783 316.967H335.289C341.185 316.967 345.956 312.196 345.956 306.3C345.956 300.404 341.185 295.633 335.289 295.633Z" fill="black"/>
<path d="M335.289 336.513H192.783C186.887 336.513 182.116 341.284 182.116 347.18C182.116 353.076 186.887 357.847 192.783 357.847H335.289C341.185 357.847 345.956 353.076 345.956 347.18C345.956 341.284 341.185 336.513 335.289 336.513Z" fill="black"/>
<path d="M197.556 92.8333H330.52C336.416 92.8333 341.187 88.0625 341.187 82.1667C341.187 76.2708 336.416 71.5 330.52 71.5H197.556C191.66 71.5 186.889 76.2708 186.889 82.1667C186.889 88.0625 191.66 92.8333 197.556 92.8333Z" fill="black"/>
<path d="M422.463 292.38H385.823C374.062 292.38 364.489 301.953 364.489 313.713V338.943C364.489 350.703 374.062 360.276 385.823 360.276H422.463C434.223 360.276 443.796 350.703 443.796 338.943V313.713C443.796 301.953 434.223 292.38 422.463 292.38ZM422.463 338.943H385.823V313.713H422.463V338.943Z" fill="black"/>
<path d="M147.209 293.207H110.569C98.8089 293.207 89.236 302.78 89.236 314.54V339.769C89.236 351.53 98.8089 361.103 110.569 361.103H147.209C158.97 361.103 168.543 351.53 168.543 339.769V314.54C168.543 302.78 158.97 293.207 147.209 293.207ZM147.209 339.769H110.569V314.54H147.209V339.769Z" fill="black"/>
<path d="M513.956 141.687C513.451 124.993 499.768 111.525 482.94 111.525H448.3V97.7134C448.3 82.3014 438.139 49.4173 424.592 42.324C395.846 27.2307 338.617 0 266.512 0C194.407 0 139.468 20.5213 110.721 35.616C97.1748 42.7097 84.724 82.3014 84.724 97.7134V111.525H50.084C33.256 111.525 19.5787 124.968 19.068 141.687C8.37534 142.833 0 151.796 0 162.807V232.009C0 242.994 8.37494 251.957 19.068 253.129C19.5732 269.823 33.256 283.291 50.084 283.291H60.1361C58.2403 288.65 57.0164 294.332 57.0164 300.332V398.468C47.5216 400.604 40.3764 409.083 40.3764 419.244V436.765C40.3764 448.526 49.9493 458.099 61.7097 458.099H89.5484V501.781C89.5484 518.927 103.522 532.875 120.642 532.875H150.991C168.136 532.875 182.084 518.927 182.084 501.781V458.099H350.911V501.781C350.911 518.927 364.884 532.875 382.004 532.875H412.354C429.499 532.875 443.447 518.927 443.447 501.781V458.099H471.286C483.046 458.099 492.619 448.526 492.619 436.765V419.244C492.619 409.083 485.473 400.604 475.979 398.468V300.332C475.979 294.332 474.75 288.65 472.859 283.291H482.912C499.74 283.291 513.417 269.848 513.927 253.129C524.62 251.984 532.995 243.02 532.995 232.009V162.807C532.995 151.822 524.621 142.859 513.927 141.687H513.956ZM511.69 231.984H483.212V162.781H511.69V231.984ZM454.674 397.851L78.3544 397.877V300.303C78.3544 283.637 91.9011 270.09 108.568 270.09H151.584C157.48 270.09 162.25 265.132 162.25 259.236C162.25 237.528 179.901 219.903 201.584 219.903H331.428C353.136 219.903 370.761 237.553 370.761 259.449C370.761 265.345 375.532 270.116 381.428 270.116H424.444C441.11 270.116 454.657 283.663 454.657 300.329V397.903L454.674 397.851ZM240.061 198.571H201.608C171.769 198.571 146.889 220.221 141.848 248.784H139.686V139.024C139.686 133.639 144.061 129.238 149.447 129.238H240.056L240.061 198.571ZM393.341 248.784H391.206C386.221 220.305 361.31 198.571 331.419 198.571H292.966V129.237H383.575C388.96 129.237 393.335 133.612 393.335 139.024L393.341 248.784ZM106.061 97.7174C106.061 90.2486 114.137 57.912 120.642 54.5C147.658 40.312 198.988 21.3373 266.512 21.3373C334.034 21.3373 387.659 47.0467 414.672 61.208C421.177 64.6195 426.964 90.2535 426.964 97.7174V249.024C426.109 248.972 425.312 248.758 424.458 248.758H414.672V138.998C414.672 121.853 400.699 107.878 383.579 107.878H282.297C276.401 107.878 271.631 112.649 271.631 118.545V198.545H261.391V118.545C261.391 112.649 256.62 107.878 250.724 107.878H149.443C132.298 107.878 118.35 121.826 118.35 138.998V248.758H108.563C107.709 248.758 106.912 248.972 106.058 249.024L106.061 97.7174ZM21.3677 232.011V162.808H49.8464V232.011H21.3677ZM40.5651 253.344H60.5131C66.4089 253.344 71.1797 248.573 71.1797 242.677V152.141C71.1797 146.246 66.4089 141.475 60.5131 141.475H40.5651C41.1797 136.673 45.1276 132.886 50.112 132.886H84.752V254.913C81.0437 256.861 77.6323 259.205 74.5124 261.954H50.1111C45.1527 261.954 41.1788 258.168 40.5641 253.366L40.5651 253.344ZM160.773 501.771C160.773 507.156 156.398 511.531 151.013 511.531H120.663C115.278 511.531 110.903 507.156 110.903 501.771V458.088H160.799V501.771H160.773ZM422.16 501.771C422.16 507.156 417.785 511.531 412.399 511.531H382.05C376.665 511.531 372.29 507.156 372.29 501.771V458.088H422.186V501.771H422.16ZM471.332 436.755L61.7051 436.729V419.207H471.305V436.729L471.332 436.755ZM482.957 261.955H458.556C455.462 259.21 452.024 256.861 448.316 254.913V132.886H482.956C487.914 132.886 491.888 136.673 492.503 141.475H472.555C466.659 141.475 461.888 146.246 461.888 152.142V242.678C461.888 248.574 466.659 253.344 472.555 253.344H492.503C491.888 258.146 487.94 261.933 482.956 261.933L482.957 261.955Z" fill="black"/>
<circle cx="153.183" cy="71.5" r="21" fill="#FF0A0A" stroke="black" stroke-width="6"/>
<circle cx="375.183" cy="71.5" r="21" fill="#FF0A0A" stroke="black" stroke-width="6"/>
<path d="M172.545 91.1512L180.979 100.007" stroke="#FF0606" stroke-width="6"/>
<path d="M124.891 43.0757L133.325 51.9317" stroke="#FF0606" stroke-width="6"/>
<path d="M133.325 91.1513L124.469 99.5856" stroke="#FF0606" stroke-width="6"/>
<path d="M181.401 43.4974L172.545 51.9317" stroke="#FF0606" stroke-width="6"/>
<path d="M125.203 71.5415L112.976 71.2433" stroke="#FF0606" stroke-width="6"/>
<path d="M192.894 71.8397L180.667 71.5415" stroke="#FF0606" stroke-width="6"/>
<path d="M152.935 44.2307L153.233 32.0046" stroke="#FF0606" stroke-width="6"/>
<path d="M152.637 111.5L152.935 99.2739" stroke="#FF0606" stroke-width="6"/>
<path d="M172.545 91.1512L180.979 100.007" stroke="#FF0606" stroke-width="6"/>
<path d="M124.891 43.0757L133.325 51.9317" stroke="#FF0606" stroke-width="6"/>
<path d="M133.325 91.1513L124.469 99.5856" stroke="#FF0606" stroke-width="6"/>
<path d="M181.401 43.4974L172.545 51.9317" stroke="#FF0606" stroke-width="6"/>
<path d="M125.203 71.5415L112.976 71.2433" stroke="#FF0606" stroke-width="6"/>
<path d="M192.894 71.8397L180.667 71.5415" stroke="#FF0606" stroke-width="6"/>
<path d="M152.935 44.2307L153.233 32.0046" stroke="#FF0606" stroke-width="6"/>
<path d="M152.637 111.5L152.935 99.2739" stroke="#FF0606" stroke-width="6"/>
<path d="M394.751 91.1512L403.185 100.007" stroke="#FF0606" stroke-width="6"/>
<path d="M347.097 43.0757L355.531 51.9317" stroke="#FF0606" stroke-width="6"/>
<path d="M355.531 91.1513L346.675 99.5856" stroke="#FF0606" stroke-width="6"/>
<path d="M403.607 43.4974L394.751 51.9317" stroke="#FF0606" stroke-width="6"/>
<path d="M347.409 71.5415L335.183 71.2433" stroke="#FF0606" stroke-width="6"/>
<path d="M415.1 71.8397L402.874 71.5415" stroke="#FF0606" stroke-width="6"/>
<path d="M375.141 44.2307L375.439 32.0046" stroke="#FF0606" stroke-width="6"/>
<path d="M374.843 111.5L375.141 99.2739" stroke="#FF0606" stroke-width="6"/>
<path d="M394.751 91.1512L403.185 100.007" stroke="#FF0606" stroke-width="6"/>
<path d="M347.097 43.0757L355.531 51.9317" stroke="#FF0606" stroke-width="6"/>
<path d="M355.531 91.1513L346.675 99.5856" stroke="#FF0606" stroke-width="6"/>
<path d="M403.607 43.4974L394.751 51.9317" stroke="#FF0606" stroke-width="6"/>
<path d="M347.409 71.5415L335.183 71.2433" stroke="#FF0606" stroke-width="6"/>
<path d="M415.1 71.8397L402.874 71.5415" stroke="#FF0606" stroke-width="6"/>
<path d="M375.141 44.2307L375.439 32.0046" stroke="#FF0606" stroke-width="6"/>
<path d="M374.843 111.5L375.141 99.2739" stroke="#FF0606" stroke-width="6"/>
</svg>
