<svg width="390" height="587" viewBox="0 0 390 587" fill="none" xmlns="http://www.w3.org/2000/svg">
<path d="M8.00293 310.714C3.57586 310.714 0.00292969 314.287 0.00292969 318.714V349.485C0.00292969 396.63 35.6283 442.657 99.0443 442.657C106.992 456.897 122.138 466.553 139.575 466.553H150.137V578.766C150.137 583.193 153.71 586.766 158.137 586.766H231.205C235.633 586.766 239.205 583.193 239.205 578.766V466.553H249.768C267.153 466.553 282.356 456.901 290.299 442.657C354.195 442.657 389.34 396.151 389.34 349.485V318.714C389.34 314.287 385.767 310.714 381.34 310.714H296.168V302.339C347.637 302.339 389.34 260.475 389.34 209.167V178.396C389.34 173.969 385.767 170.396 381.34 170.396H296.168V162.021C347.637 162.021 389.34 120.157 389.34 68.8493V38.0787C389.34 33.6516 385.767 30.0787 381.34 30.0787H293.127C286.512 12.532 269.605 0 249.767 0H139.579C119.74 0 102.833 12.5312 96.2187 30.0787L8 30.0735C3.57293 30.0735 0 33.6464 0 38.0735V68.8441C0 120.099 41.6507 162.016 93.172 162.016V170.391H8C3.57293 170.391 0 173.964 0 178.391V209.162C0 260.416 41.6507 302.334 93.172 302.334V310.709H8L8.00293 310.714ZM373.23 186.449V209.219C373.23 251.782 338.615 286.391 296.058 286.391V186.495H373.23V186.449ZM373.23 46.1819V68.9525C373.23 111.515 338.615 146.125 296.058 146.125L296.052 46.3952C296.052 45.864 296.052 46.1296 373.224 46.1296L373.23 46.1819ZM296.058 326.769H373.23V349.539C373.23 391.247 339.631 426.711 295.522 426.711C296.266 421.482 296.053 426.55 296.053 326.815L296.058 326.769ZM223.151 570.769H166.083V466.555H223.151V570.769ZM109.178 46.3952C109.178 29.8645 122.672 16.0459 139.527 16.0459H249.715C260.486 16.0459 269.928 21.6969 275.314 30.1245C282.511 41.4319 280.058 30.1766 280.058 420.098C280.058 437.114 266.085 450.447 249.709 450.447C128.272 450.447 130.24 452.583 119.204 442.551C114.35 438.124 111.256 432.687 109.87 426.551C108.751 421.432 109.178 426.338 109.178 46.338L109.178 46.3952ZM93.1256 146.021C50.5629 146.021 15.9536 111.406 15.9536 68.8485V46.0779C93.1256 46.0779 93.1256 45.8122 93.1256 46.3435V146.021ZM93.1256 286.287C50.5629 286.287 15.9536 251.673 15.9536 209.115V186.345H93.1256V286.287ZM93.6048 426.554C49.5528 426.554 15.8968 391.194 15.8968 349.382V326.611H93.0688C93.0688 426.185 92.8552 421.33 93.5479 426.507L93.6048 426.554Z" fill="black"/>
<path opacity="0.55" d="M156.002 326.659C177.871 306.394 211.309 306.394 233.23 326.659C270.933 361.539 246.19 424.581 194.616 424.581C143.043 424.581 118.294 361.539 156.002 326.659ZM156.002 191.246C177.871 170.981 211.309 170.981 233.23 191.246C270.933 226.126 246.19 289.168 194.616 289.168C143.043 289.168 118.294 226.126 156.002 191.246ZM156.002 57.2458C177.871 36.9811 211.309 36.981 233.23 57.2458C270.933 92.1258 246.19 155.168 194.616 155.168C143.043 155.168 118.294 92.1259 156.002 57.2458Z" fill="black"/>
<path d="M175.15 286.341C187.894 290.981 201.286 290.981 214.03 286.341C257.603 270.502 264.8 212.314 226.347 186.445C207.629 173.804 182.295 173.325 162.774 186.445C124.321 212.309 131.577 270.497 175.092 286.341H175.15ZM194.619 192.742C217.124 192.742 235.474 210.93 235.474 233.273C235.474 255.622 217.182 273.803 194.619 273.803C172.056 273.803 153.764 255.615 153.764 233.273C153.764 210.923 172.056 192.742 194.619 192.742Z" fill="black"/>
<path d="M175.15 421.604C187.894 426.245 201.286 426.245 214.03 421.604C257.603 405.766 264.8 347.578 226.347 321.708C207.629 309.068 182.295 308.588 162.774 321.708C124.321 347.572 131.577 405.76 175.092 421.604H175.15ZM194.619 328.006C217.124 328.006 235.474 346.194 235.474 368.536C235.474 390.886 217.182 409.067 194.619 409.067C172.056 409.067 153.764 390.879 153.764 368.536C153.764 346.187 172.056 328.006 194.619 328.006Z" fill="black"/>
<path d="M164.003 146.074C182.722 158.022 206.508 158.022 225.232 146.074C264.216 121.167 258.514 63.4072 216.003 46.1778C202.508 40.683 187.258 40.4696 173.232 46.1778C130.727 63.4592 125.071 121.162 164.003 146.074ZM194.618 57.9699C217.123 57.9699 235.472 76.1578 235.472 98.5005C235.472 120.85 217.18 139.031 194.618 139.031C172.055 139.031 153.763 120.843 153.763 98.5005C153.763 76.1512 172.055 57.9699 194.618 57.9699Z" fill="black"/>
</svg>
